<svg id="judo1" xmlns="http://www.w3.org/2000/svg" width="97.631" height="49.604" viewBox="0 0 97.631 49.604">
  <path id="Path_5" data-name="Path 5" d="M215.006,202.913l-9.62,9.62h0a12.788,12.788,0,0,0,8.408,3.152h4.075Z" transform="translate(-166.222 -188.234)" fill="#ebd385"/>
  <path id="Path_6" data-name="Path 6" d="M332.234,158.913h29.155a3.217,3.217,0,0,1,3.217,3.217v10.346a3.217,3.217,0,0,1-3.217,3.217H349.046Z" transform="translate(-268.882 -152.624)" fill="#ebd385"/>
  <path id="Path_7" data-name="Path 7" d="M267.342,159.447l-7.794,1.944A2.857,2.857,0,0,1,256,158.619V138.792a2.857,2.857,0,0,1,3.548-2.772l7.794,1.944a2.857,2.857,0,0,1,2.165,2.772v15.94A2.857,2.857,0,0,1,267.342,159.447Z" transform="translate(-207.185 -134.027)" fill="#ebd385"/>
  <path id="Path_8" data-name="Path 8" d="M29.863,175.694H13.217A3.217,3.217,0,0,1,10,172.477V162.131a3.217,3.217,0,0,1,3.217-3.217h33.49Z" transform="translate(-8.093 -152.625)" fill="#ebd385"/>
  <path id="Path_9" data-name="Path 9" d="M199.918,150.491,189.6,139.985h0a16.558,16.558,0,0,1,10.85-4.051H204.9Z" transform="translate(-153.443 -134.027)" fill="#ebd385"/>
  <g id="Group_19" data-name="Group 19" transform="translate(14.258 4.925)">
    <rect id="Rectangle_40" data-name="Rectangle 40" width="12.49" height="33.442" transform="translate(8.831 35.449) rotate(-135)" fill="#ebd385"/>
    <path id="Path_10" data-name="Path 10" d="M324.841,170.365l24.169,24.169,8.831-8.831L323.9,151.762Z" transform="translate(-276.396 -151.762)" fill="#ebd385"/>
  </g>
  <path id="Path_11" data-name="Path 11" d="M97.631,145.785V135.439a5.13,5.13,0,0,0-5.124-5.124H63.917l-.805-.805a1.9,1.9,0,0,0-.259-.215,4.751,4.751,0,0,0-2.234-1.275l-7.794-1.944a4.793,4.793,0,0,0-1.322-.141l-.049,0H47a18.464,18.464,0,0,0-11.937,4.382H5.124A5.13,5.13,0,0,0,0,135.439v10.346a5.13,5.13,0,0,0,5.124,5.124h13l-5.218,5.218a1.907,1.907,0,0,0,0,2.7l8.831,8.831a1.907,1.907,0,0,0,2.7,0l14.9-14.9a14.69,14.69,0,0,0,8.239,2.531h4.09a4.806,4.806,0,0,0,1.163-.144l7.794-1.944a4.754,4.754,0,0,0,2.042-1.088l5.481,5.481a1.907,1.907,0,1,0,2.7-2.7l-6.609-6.609V136.021L93.007,164.8l-6.135,6.135-5.986-5.986a1.907,1.907,0,1,0-2.7,2.7l7.334,7.334a1.907,1.907,0,0,0,2.7,0l8.832-8.831a1.907,1.907,0,0,0,0-2.7L84.511,150.909h8A5.13,5.13,0,0,0,97.631,145.785ZM47,129.747h0a4.814,4.814,0,0,0-.1.951v9.092l-.162.162L39.035,132.1A14.653,14.653,0,0,1,47,129.747ZM21.77,147.1H5.124a1.312,1.312,0,0,1-1.311-1.31V135.439a1.312,1.312,0,0,1,1.311-1.311H34.908L21.933,147.1C21.879,147.1,21.825,147.1,21.77,147.1Zm1.319,16.515-6.135-6.135,20.951-20.951,6.135,6.135Zm23.82-18.426v5.342a4.826,4.826,0,0,0,.093.935A10.881,10.881,0,0,1,42.094,150Zm13.507,3.4a.948.948,0,0,1-.72.922L51.9,151.447a.95.95,0,0,1-1.18-.921V130.7a.953.953,0,0,1,.943-.951.983.983,0,0,1,.237.03L59.7,131.72a.948.948,0,0,1,.72.922Zm7.315-14.453H92.507a1.312,1.312,0,0,1,1.31,1.311v10.346a1.312,1.312,0,0,1-1.31,1.31H80.7Z" transform="translate(0 -125.933)"/>
  <path id="Path_12" data-name="Path 12" d="M381.08,299.662a1.908,1.908,0,1,0,1.348.559A1.921,1.921,0,0,0,381.08,299.662Z" transform="translate(-306.87 -266.535)"/>
</svg>
