<svg id="kicksmall" xmlns="http://www.w3.org/2000/svg" width="68.442" height="71.333" viewBox="0 0 68.442 71.333">
  <circle id="Ellipse_5" data-name="Ellipse 5" cx="24.5" cy="24.5" r="24.5" transform="translate(16.328)" fill="#ffb7b7"/>
  <g id="judo" transform="translate(0 8)">
    <g id="Group_10" data-name="Group 10" transform="translate(0 0)">
      <g id="Group_9" data-name="Group 9">
        <path id="Path_1" data-name="Path 1" d="M2.119,26.152a7.254,7.254,0,0,1,10.247,0l.759.759a7.2,7.2,0,0,1,1.958,3.608l.228-.228a6.634,6.634,0,0,1,6.814-1.615l5.712,1.893a1.306,1.306,0,0,0,1.341-.318L33.1,26.326a1.342,1.342,0,0,1,1.9,0l.139.139,1.773-1.773a3.882,3.882,0,0,1,1.128-3.021l1.423-1.423a3.9,3.9,0,0,1,5.5,0l2.2,2.2a3.9,3.9,0,0,1,0,5.5l-1.423,1.423a3.88,3.88,0,0,1-2.752,1.138c-.09,0-.18,0-.269-.01l-1.773,1.773.113.113a1.342,1.342,0,0,1,0,1.9l-1,1,16-8.776a1.335,1.335,0,0,1,.5-.157L62.2,22.837a4.082,4.082,0,1,1,4.323,6.925l-4.207,2.626a1.34,1.34,0,0,1-.511.721l-5.211,3.7a1.342,1.342,0,1,1-1.554-2.188l3.916-2.782-2.49-2.49L35.113,41.06l5.7,3.582,6.939-4.766a1.342,1.342,0,1,1,1.52,2.212L43.294,46.2l.021.013a1.342,1.342,0,0,1,.233,2.087l-7.053,7.017V79.089a3.358,3.358,0,0,1-3.355,3.355h-11.4A1.342,1.342,0,0,1,20.4,81.1v-.4a6.717,6.717,0,0,1,6.269-6.693L22.637,55.842l-1.111,1.111a3.9,3.9,0,0,1-5.5,0L14.871,55.8c-.077-.077-.149-.156-.218-.238L7.759,48.725a7.887,7.887,0,0,1-1.239-9.6,7.2,7.2,0,0,1-3.642-1.965L2.119,36.4A7.254,7.254,0,0,1,2.119,26.152Zm58.854,3.911L65.1,27.486a1.4,1.4,0,1,0-1.481-2.372l-4.677,2.919ZM14.47,35.3a7.2,7.2,0,0,1-2.131,2.541l3.588.684Zm27.665-7.82a1.209,1.209,0,0,0,1.708,0l1.423-1.423a1.209,1.209,0,0,0,0-1.708l-2.2-2.2a1.209,1.209,0,0,0-1.708,0l-1.423,1.423a1.209,1.209,0,0,0,0,1.708Zm-1.99,1.8-2.013-2.013L37.05,28.349l2.013,2.013ZM23.2,79.76H33.14a.672.672,0,0,0,.671-.671V76.675h-6.7A4.032,4.032,0,0,0,23.2,79.76Zm6.219-5.768h4.4V57.985l-3.67,3.652a1.342,1.342,0,0,1-.946.391,1.356,1.356,0,0,1-.152-.009,1.342,1.342,0,0,1-.984-.62l-2.225-3.545Zm-2.68-19.748L29.975,51a1.342,1.342,0,0,1,1.9,1.9L28.2,56.575l1.239,1.975,11.02-10.964-7.8-4.9-8.11,8.069Zm-3.471-6,7.7-7.66-5.439-1.224a1.342,1.342,0,0,1,.589-2.618l7.1,1.6,5-5-4.163-4.163-2.976,2.976a3.975,3.975,0,0,1-4.083.968l-5.712-1.893a3.965,3.965,0,0,0-4.072.965l-.824.824Zm-6.613,5.523.437.434a1.342,1.342,0,0,1,.136.161l.695.695a1.208,1.208,0,0,0,1.707,0l1.886-1.886a1.2,1.2,0,0,0,.351-.806l-.135-.608a1.206,1.206,0,0,0-.216-.294L20.363,50.31a1.2,1.2,0,0,0-1.25-.285,1.333,1.333,0,0,1-.434.263l-.024.022L16.769,52.2a1.2,1.2,0,0,0-.117,1.57Zm-7-6.946,4.5,4.467a3.9,3.9,0,0,1,.718-.989l1.356-1.356L14.09,46.8a1.342,1.342,0,1,1,1.9-1.9l2.5,2.5a3.922,3.922,0,0,1,1.4-.117L17.278,41.51,9.186,39.967a5.2,5.2,0,0,0,.464,6.852ZM4.017,34.5l.759.759a4.562,4.562,0,0,0,6.452-6.452l-.759-.759A4.562,4.562,0,1,0,4.017,34.5Z" transform="translate(0 -19.11)"/>
      </g>
    </g>
    <g id="Group_12" data-name="Group 12" transform="translate(50.721 17.885)">
      <g id="Group_11" data-name="Group 11" transform="translate(0)">
        <path id="Path_2" data-name="Path 2" d="M112.889,153.3a1.341,1.341,0,1,1-.393.949A1.352,1.352,0,0,1,112.889,153.3Z" transform="translate(-112.496 -152.905)"/>
      </g>
    </g>
    <g id="Group_14" data-name="Group 14" transform="translate(33.307 27.776)">
      <g id="Group_13" data-name="Group 13" transform="translate(0)">
        <path id="Path_3" data-name="Path 3" d="M243.16,227.286a1.341,1.341,0,1,1-.393.949A1.352,1.352,0,0,1,243.16,227.286Z" transform="translate(-242.767 -226.893)"/>
      </g>
    </g>
    <g id="Group_16" data-name="Group 16" transform="translate(48.728 19.261)">
      <g id="Group_15" data-name="Group 15">
        <path id="Path_4" data-name="Path 4" d="M46,171.17l10.957-7.729a1.342,1.342,0,1,1,1.547,2.193l-10.957,7.729A1.342,1.342,0,0,1,46,171.17Z" transform="translate(-45.431 -163.195)"/>
      </g>
    </g>
  </g>
</svg>
