<svg id="wordlogo" xmlns="http://www.w3.org/2000/svg" width="127.984" height="26" viewBox="0 0 127.984 26">
  <g id="Group_46" data-name="Group 46" transform="translate(-133.016 -344)">
    <path id="Path_20" data-name="Path 20" d="M20.453,34H16.125L8.953,23.656l-2.2,1.8V34H3.016V11.156H6.75V22.063Q8.281,20.188,9.8,18.453l6.172-7.3h4.25q-5.984,7.031-8.578,10.016Zm17.188,0-2.281-6.344H26.625L24.391,34H20.453L29,11.063h4.063L41.609,34Zm-3.266-9.562-2.141-6.219q-.234-.625-.648-1.969t-.57-1.969a35.018,35.018,0,0,1-1.234,4.2l-2.062,5.953Zm13.984-2.656h2.594a5.923,5.923,0,0,0,3.781-.969,3.515,3.515,0,0,0,1.172-2.875,3.094,3.094,0,0,0-1.266-2.781,6.939,6.939,0,0,0-3.812-.844H48.359Zm0,3.094V34H44.625V11.156h6.453q4.422,0,6.547,1.656a5.947,5.947,0,0,1,2.125,5q0,4.266-4.437,6.078L61.766,34h-4.25l-5.469-9.125ZM79.25,34l-2.281-6.344H68.234L66,34H62.063l8.547-22.937h4.063L83.219,34Zm-3.266-9.562-2.141-6.219q-.234-.625-.648-1.969t-.57-1.969a35.018,35.018,0,0,1-1.234,4.2l-2.062,5.953ZM94.125,34H90.391V14.359H83.672v-3.2h17.172v3.2H94.125Zm24.391,0-2.281-6.344H107.5L105.266,34h-3.937l8.547-22.937h4.063L122.484,34Zm-3.266-9.562-2.141-6.219q-.234-.625-.648-1.969t-.57-1.969a35.018,35.018,0,0,1-1.234,4.2l-2.062,5.953ZM125.5,34V17.813h3.734V34Z" transform="translate(130 336)" fill="#313131"/>
    <circle id="Ellipse_11" data-name="Ellipse 11" cx="3.5" cy="3.5" r="3.5" transform="translate(254 344)" fill="#ea6765"/>
  </g>
</svg>
