<svg id="logo" xmlns="http://www.w3.org/2000/svg" width="172" height="172" viewBox="0 0 172 172">
  <circle id="Ellipse_10" data-name="Ellipse 10" cx="86" cy="86" r="86" fill="#ea6765"/>
  <g id="Group_10" data-name="Group 10" transform="translate(35.672 49)">
    <g id="Group_9" data-name="Group 9">
      <path id="Path_1" data-name="Path 1" d="M3.127,29.5a10.7,10.7,0,0,1,15.121,0l1.12,1.12a10.624,10.624,0,0,1,2.889,5.323l.336-.336a9.79,9.79,0,0,1,10.055-2.383l8.428,2.793a1.927,1.927,0,0,0,1.979-.469l5.791-5.791a1.98,1.98,0,0,1,2.8,0l.2.2,2.617-2.617a5.728,5.728,0,0,1,1.664-4.458l2.1-2.1a5.749,5.749,0,0,1,8.121,0L69.6,24.034a5.749,5.749,0,0,1,0,8.121l-2.1,2.1a5.725,5.725,0,0,1-4.06,1.679c-.133,0-.265-.006-.4-.015l-2.617,2.617.167.167a1.98,1.98,0,0,1,0,2.8l-1.482,1.482L82.72,30.034a1.97,1.97,0,0,1,.742-.232l8.32-5.193A6.023,6.023,0,1,1,98.16,34.829L91.953,38.7a1.977,1.977,0,0,1-.753,1.063l-7.689,5.462A1.98,1.98,0,1,1,81.218,42L87,37.9l-3.674-3.674L51.814,51.5l8.417,5.286L70.47,49.752a1.98,1.98,0,0,1,2.242,3.264L63.885,59.08l.032.02a1.98,1.98,0,0,1,.343,3.08L53.852,72.534v35.082a4.956,4.956,0,0,1-4.95,4.95H32.085a1.98,1.98,0,0,1-1.98-1.98v-.592a9.911,9.911,0,0,1,9.25-9.876L33.4,73.312l-1.64,1.64a5.749,5.749,0,0,1-8.121,0l-1.7-1.7c-.113-.113-.22-.231-.322-.352L11.45,62.81A11.639,11.639,0,0,1,9.621,48.642a10.628,10.628,0,0,1-5.375-2.9l-1.12-1.12A10.7,10.7,0,0,1,3.127,29.5Zm86.846,5.771,6.091-3.8a2.063,2.063,0,1,0-2.185-3.5l-6.9,4.307ZM21.353,42.993a10.63,10.63,0,0,1-3.144,3.75L23.5,47.752Zm40.823-11.54a1.784,1.784,0,0,0,2.52,0l2.1-2.1a1.784,1.784,0,0,0,0-2.52L63.551,23.59a1.784,1.784,0,0,0-2.52,0l-2.1,2.1a1.784,1.784,0,0,0,0,2.52Zm-2.937,2.663-2.971-2.97-1.6,1.6,2.971,2.971Zm-25.01,74.49H48.9a.991.991,0,0,0,.99-.99v-3.562H40.005A5.95,5.95,0,0,0,34.229,108.606Zm9.178-8.512h6.486V76.474l-5.416,5.389a1.98,1.98,0,0,1-3.074-.351L38.12,76.28ZM39.452,70.953l4.78-4.78a1.98,1.98,0,0,1,2.8,2.8l-5.421,5.421,1.829,2.914L59.7,61.129,48.187,53.9,36.22,65.8ZM34.33,62.1l11.361-11.3-8.026-1.806a1.98,1.98,0,0,1,.869-3.864l10.473,2.356L56.389,40.1l-6.143-6.143-4.391,4.391a5.866,5.866,0,0,1-6.025,1.428L31.4,36.984a5.851,5.851,0,0,0-6.009,1.424l-1.216,1.216Zm-9.758,8.15.645.64a1.98,1.98,0,0,1,.2.237l1.025,1.025a1.783,1.783,0,0,0,2.52,0l2.783-2.783a1.772,1.772,0,0,0,.518-1.19l-.2-.9a1.779,1.779,0,0,0-.319-.434l-1.7-1.7a1.775,1.775,0,0,0-1.844-.421,1.967,1.967,0,0,1-.64.389c-.012.011-.024.021-.036.033l-2.783,2.783a1.778,1.778,0,0,0-.172,2.317ZM14.239,60l6.646,6.592a5.756,5.756,0,0,1,1.06-1.459l2-2-3.155-3.155a1.98,1.98,0,1,1,2.8-2.8l3.695,3.695a5.787,5.787,0,0,1,2.065-.172L25.5,52.164,13.554,49.887A7.667,7.667,0,0,0,14.239,60ZM5.927,41.821l1.12,1.12a6.732,6.732,0,1,0,9.521-9.521l-1.12-1.12a6.732,6.732,0,1,0-9.521,9.521Z" transform="translate(0 -19.11)" fill="#fff"/>
    </g>
  </g>
</svg>
