<svg id="warm" xmlns="http://www.w3.org/2000/svg" width="96.283" height="103.469" viewBox="0 0 96.283 103.469">
  <ellipse id="Ellipse_3" data-name="Ellipse 3" cx="35.5" cy="35" rx="35.5" ry="35" transform="translate(22.902 6.248)" fill="#ffb7b7"/>
  <g id="karate">
    <g id="Group_21" data-name="Group 21" transform="translate(44.208 66.028)">
      <g id="Group_20" data-name="Group 20">
        <path id="Path_13" data-name="Path 13" d="M247,334.909a3.1,3.1,0,1,0,.909,2.194A3.127,3.127,0,0,0,247,334.909Z" transform="translate(-241.7 -334)"/>
      </g>
    </g>
    <g id="Group_23" data-name="Group 23" transform="translate(72.956 72.821)">
      <g id="Group_22" data-name="Group 22">
        <path id="Path_14" data-name="Path 14" d="M396.676,370.824l-.046-.139a3.1,3.1,0,0,0-5.892,1.951l.046.139a3.1,3.1,0,0,0,5.892-1.951Z" transform="translate(-390.58 -368.557)"/>
      </g>
    </g>
    <g id="Group_25" data-name="Group 25" transform="translate(0)">
      <g id="Group_24" data-name="Group 24">
        <path id="Path_15" data-name="Path 15" d="M103.418,36.275H100.25a5.684,5.684,0,0,0-4.361,2.055H92.131v-.741a2,2,0,0,0-1.98-2.021H81.159a2.3,2.3,0,0,1-2.074-1.306L74.71,25.37a10.536,10.536,0,0,0-9.483-5.97H63.477a11,11,0,0,0,2.393-6.871V10.913a10.695,10.695,0,1,0-21.385,0v1.617A11,11,0,0,0,46.879,19.4H42.791a10.693,10.693,0,0,0-10.2,7.837L28.019,43.469A8.124,8.124,0,0,0,29.3,50.544a7.78,7.78,0,0,0,6.308,3.212h5.5v2.676L31.07,62.384A24.414,24.414,0,0,0,20.332,75.865L14.845,92.728a2.055,2.055,0,0,0,.273,1.819,1.989,1.989,0,0,0,.214.251,10.18,10.18,0,0,0-2.456,6.65,2,2,0,0,0,1.98,2.021H30.3a5.008,5.008,0,0,0,4.95-5.052v-3.04a1.977,1.977,0,0,0,1.7-1.185l6.406-14.569H68.507l6.406,14.569a1.977,1.977,0,0,0,1.7,1.185v3.04a5.162,5.162,0,0,0,.1,1.01H60.167a2.021,2.021,0,0,0,0,4.042H97a2,2,0,0,0,1.98-2.021,10.179,10.179,0,0,0-2.456-6.65,2.016,2.016,0,0,0,.214-.251,2.055,2.055,0,0,0,.273-1.819L93.686,82.5a1.971,1.971,0,0,0-2.5-1.281,2.03,2.03,0,0,0-1.255,2.555l2.463,7.569H78L72.848,79.623H74.9a1.968,1.968,0,0,0,1.6-.824,2.054,2.054,0,0,0,.294-1.8L72.178,61.955,78.8,65.88A20.373,20.373,0,0,1,85.2,71.9a1.966,1.966,0,0,0,1.628.868,1.945,1.945,0,0,0,1.128-.362,2.047,2.047,0,0,0,.5-2.813,24.391,24.391,0,0,0-7.664-7.211L70.746,56.432V53.781H90.151a2,2,0,0,0,1.98-2.021v-.9h3.757a5.684,5.684,0,0,0,4.361,2.055h3.168a5.809,5.809,0,0,0,5.742-5.861V42.135A5.809,5.809,0,0,0,103.418,36.275ZM80.569,95.385h8.512a5.96,5.96,0,0,1,5.6,4.042H81.559a1,1,0,0,1-.99-1.01ZM48.446,10.913a6.734,6.734,0,1,1,13.465,0v1.617a6.734,6.734,0,1,1-13.465,0ZM62.033,53.781H65.2a5.653,5.653,0,0,0,.625-.035,1.949,1.949,0,0,0,.363.035h.6v1.793H45.073V53.755h6.861a2,2,0,0,0,1.98-2.021v-.008h3.757A5.684,5.684,0,0,0,62.033,53.781ZM60.251,47.92V43a1.8,1.8,0,0,1,1.782-1.819H65.2A1.8,1.8,0,0,1,66.983,43V47.92A1.8,1.8,0,0,1,65.2,49.739H62.033A1.8,1.8,0,0,1,60.251,47.92Zm-3.96-.236H53.915V43.239h2.376ZM58.922,22.75,55,30.415l-5.4-8.582a10.481,10.481,0,0,0,9.324.917ZM35.608,49.714a3.878,3.878,0,0,1-3.144-1.6,4.05,4.05,0,0,1-.639-3.527L36.4,28.355a6.7,6.7,0,0,1,6.392-4.912H45.9L55.823,39.2h-1.95a1.991,1.991,0,0,0-1.939-1.609h-10.3a2.021,2.021,0,0,0,0,4.042h8.317v8.084Zm-4.318,48.7a1,1,0,0,1-.99,1.01H17.177a5.96,5.96,0,0,1,5.6-4.042H31.29Zm2.568-7.073H19.468l4.622-14.2a20.392,20.392,0,0,1,8.969-11.26l6.621-3.925L35.065,77a2.055,2.055,0,0,0,.294,1.8,1.968,1.968,0,0,0,1.6.824h2.056ZM72.209,75.581H39.65l1.24-4.042h11.5a2.021,2.021,0,0,0,0-4.042H42.13l2.418-7.881H67.311ZM88.171,40.35v9.389H70.659a5.946,5.946,0,0,0,.285-1.819V43A5.809,5.809,0,0,0,65.2,37.143H62.033a5.609,5.609,0,0,0-2.445.559L57.466,34.33l5.569-10.888h2.192a6.6,6.6,0,0,1,5.944,3.742l4.375,8.891a6.236,6.236,0,0,0,5.613,3.534h7.012Zm6.336,6.467H92.131V42.371h2.376Zm10.693.236a1.8,1.8,0,0,1-1.782,1.819H100.25a1.8,1.8,0,0,1-1.782-1.819V42.135a1.8,1.8,0,0,1,1.782-1.819h3.168a1.8,1.8,0,0,1,1.782,1.819Z" transform="translate(-12.877)"/>
      </g>
    </g>
  </g>
</svg>
