<svg id="warmsmall" xmlns="http://www.w3.org/2000/svg" width="67" height="72" viewBox="0 0 67 72">
  <circle id="Ellipse_3" data-name="Ellipse 3" cx="24.5" cy="24.5" r="24.5" transform="translate(16 4)" fill="#ffb7b7"/>
  <g id="karate">
    <g id="Group_21" data-name="Group 21" transform="translate(30.762 45.946)">
      <g id="Group_20" data-name="Group 20">
        <path id="Path_13" data-name="Path 13" d="M245.386,334.633a2.158,2.158,0,1,0,.633,1.527A2.176,2.176,0,0,0,245.386,334.633Z" transform="translate(-241.7 -334)"/>
      </g>
    </g>
    <g id="Group_23" data-name="Group 23" transform="translate(50.767 50.673)">
      <g id="Group_22" data-name="Group 22">
        <path id="Path_14" data-name="Path 14" d="M394.822,370.134l-.032-.1a2.16,2.16,0,0,0-4.1,1.358l.032.1a2.16,2.16,0,0,0,4.1-1.358Z" transform="translate(-390.58 -368.557)"/>
      </g>
    </g>
    <g id="Group_25" data-name="Group 25">
      <g id="Group_24" data-name="Group 24" transform="translate(0)">
        <path id="Path_15" data-name="Path 15" d="M75.881,25.242h-2.2a3.955,3.955,0,0,0-3.035,1.43H68.027v-.516a1.392,1.392,0,0,0-1.378-1.406H60.392a1.6,1.6,0,0,1-1.443-.909L55.9,17.654a7.332,7.332,0,0,0-6.6-4.154H48.088a7.653,7.653,0,0,0,1.665-4.781V7.594a7.442,7.442,0,1,0-14.881,0V8.719A7.653,7.653,0,0,0,36.538,13.5H33.693a7.441,7.441,0,0,0-7.1,5.454L23.414,30.248a5.653,5.653,0,0,0,.891,4.923,5.414,5.414,0,0,0,4.39,2.235h3.831v1.862l-6.988,4.142a16.989,16.989,0,0,0-7.473,9.381L14.246,64.526a1.43,1.43,0,0,0,.19,1.266,1.384,1.384,0,0,0,.149.175,7.084,7.084,0,0,0-1.709,4.628A1.392,1.392,0,0,0,14.255,72H25a3.485,3.485,0,0,0,3.445-3.516V66.369a1.376,1.376,0,0,0,1.18-.825l4.458-10.138h17.5l4.458,10.138a1.376,1.376,0,0,0,1.18.825v2.115a3.592,3.592,0,0,0,.069.7H45.785a1.407,1.407,0,0,0,0,2.813H71.416a1.392,1.392,0,0,0,1.378-1.406,7.083,7.083,0,0,0-1.709-4.628,1.4,1.4,0,0,0,.149-.175,1.43,1.43,0,0,0,.19-1.266l-2.316-7.116a1.372,1.372,0,0,0-1.742-.891,1.413,1.413,0,0,0-.873,1.778l1.714,5.267H58.194l-3.586-8.156h1.431a1.37,1.37,0,0,0,1.11-.574,1.429,1.429,0,0,0,.2-1.253L54.142,43.112l4.608,2.731A14.177,14.177,0,0,1,63.2,50.034a1.368,1.368,0,0,0,1.133.6,1.353,1.353,0,0,0,.785-.252,1.425,1.425,0,0,0,.345-1.957,16.973,16.973,0,0,0-5.333-5.018l-6.988-4.142V37.424h13.5a1.392,1.392,0,0,0,1.378-1.406v-.627h2.614a3.955,3.955,0,0,0,3.035,1.43h2.2a4.042,4.042,0,0,0,4-4.078V29.32A4.042,4.042,0,0,0,75.881,25.242Zm-15.9,41.133H65.9a4.147,4.147,0,0,1,3.9,2.813H60.67a.7.7,0,0,1-.689-.7ZM37.628,7.594a4.686,4.686,0,1,1,9.37,0V8.719a4.686,4.686,0,1,1-9.37,0Zm9.455,29.83h2.2a3.934,3.934,0,0,0,.435-.025,1.356,1.356,0,0,0,.252.025h.415v1.248H35.281V37.406h4.774A1.392,1.392,0,0,0,41.433,36v-.006h2.615A3.955,3.955,0,0,0,47.083,37.424Zm-1.24-4.078V29.924a1.255,1.255,0,0,1,1.24-1.266h2.2a1.255,1.255,0,0,1,1.24,1.266v3.422a1.255,1.255,0,0,1-1.24,1.266h-2.2A1.255,1.255,0,0,1,45.843,33.346Zm-2.756-.164H41.433V30.088h1.653Zm1.831-17.351-2.728,5.334-3.76-5.972a7.293,7.293,0,0,0,6.488.638ZM28.695,34.594a2.7,2.7,0,0,1-2.188-1.114,2.818,2.818,0,0,1-.444-2.454l3.182-11.3a4.664,4.664,0,0,1,4.448-3.418h2.166l6.9,10.963H41.4a1.385,1.385,0,0,0-1.349-1.119H32.89a1.407,1.407,0,0,0,0,2.813h5.787v5.625Zm-3,33.891a.7.7,0,0,1-.689.7H15.869a4.147,4.147,0,0,1,3.9-2.812H25.69Zm1.787-4.922H17.463l3.216-9.885a14.19,14.19,0,0,1,6.241-7.835l4.608-2.731L28.317,53.58a1.43,1.43,0,0,0,.2,1.253,1.369,1.369,0,0,0,1.11.574h1.431ZM54.164,52.594H31.507l.863-2.812h8.006a1.407,1.407,0,0,0,0-2.813H33.233l1.683-5.484h15.84ZM65.271,28.078v6.533H53.085a4.137,4.137,0,0,0,.2-1.266V29.924a4.042,4.042,0,0,0-4-4.078h-2.2a3.9,3.9,0,0,0-1.7.389L43.9,23.889l3.875-7.577h1.525a4.6,4.6,0,0,1,4.136,2.6L56.486,25.1a4.339,4.339,0,0,0,3.906,2.459h4.879Zm4.409,4.5H68.027V29.484H69.68Zm7.441.164a1.255,1.255,0,0,1-1.24,1.266h-2.2a1.255,1.255,0,0,1-1.24-1.266V29.32a1.255,1.255,0,0,1,1.24-1.266h2.2a1.255,1.255,0,0,1,1.24,1.266Z" transform="translate(-12.877)"/>
      </g>
    </g>
  </g>
</svg>
